<svg xmlns="http://www.w3.org/2000/svg" viewBox="0 0 512 512">
  <defs>
    <linearGradient id="grad1" x1="0%" y1="0%" x2="100%" y2="100%">
      <stop offset="0%" style="stop-color:#1e3a8a;stop-opacity:1" />
      <stop offset="100%" style="stop-color:#3b82f6;stop-opacity:1" />
    </linearGradient>
  </defs>
  <rect width="512" height="512" fill="none"/>
  <path d="M128 64 h256 a32 32 0 0 1 32 32 v64 a16 16 0 0 1 -16 16 h-48 v272 a32 32 0 0 1 -32 32 h-128 a32 32 0 0 1 -32 -32 v-272 h-48 a16 16 0 0 1 -16 -16 v-64 a32 32 0 0 1 32 -32 z" fill="url(#grad1)"/>
  <path d="M280 180 h-48 v48 h48 z" fill="#ffffff" opacity="0.8"/>
  <path d="M256 240 l-24 -24 h48 z" fill="#ffffff" opacity="0.8"/>
</svg>
